<?xml version="1.0" encoding="UTF-8"?>
<!-- Generator: Adobe Illustrator 23.0.1, SVG Export Plug-In . SVG Version: 6.00 Build 0)  -->
<svg xmlns="http://www.w3.org/2000/svg" xmlns:xlink="http://www.w3.org/1999/xlink" version="1.1" id="Layer_1" x="0px" y="0px" viewBox="0 0 500 500" style="enable-background:new 0 0 500 500;" xml:space="preserve">
<style type="text/css">
	.st0{fill:#62696B;}
	.st1{fill:#62696B;}
</style>

<path class="st1" d="M135.8,333.3v-29.2c0-5.9,1.5-11.3,4.6-16.3s7.1-8.7,12.1-11.3c10.8-5.4,21.7-9.4,32.8-12.1  c11.1-2.7,22.4-4,33.9-4c11.5,0,22.7,1.3,33.9,4s22,6.7,32.8,12.1c5,2.6,9.1,6.4,12.1,11.3s4.6,10.4,4.6,16.3v29.2H135.8z   M323.2,333.3v-31.2c0-7.6-2.1-15-6.4-22c-4.3-7-10.3-13.1-18.1-18.1c8.9,1,17.2,2.8,25,5.3c7.8,2.5,15.1,5.6,21.9,9.2  c6.2,3.5,11,7.3,14.3,11.6s4.9,8.9,4.9,13.9v31.2H323.2z M219.1,250c-11.5,0-21.3-4.1-29.4-12.2c-8.2-8.2-12.2-18-12.2-29.4  c0-11.5,4.1-21.3,12.2-29.4c8.2-8.2,18-12.2,29.4-12.2c11.5,0,21.3,4.1,29.4,12.2c8.2,8.2,12.2,18,12.2,29.4  c0,11.5-4.1,21.3-12.2,29.4C240.4,245.9,230.5,250,219.1,250z M323.2,208.3c0,11.5-4.1,21.3-12.2,29.4c-8.2,8.2-18,12.2-29.4,12.2  c-1.9,0-4.3-0.2-7.3-0.7c-3-0.4-5.4-0.9-7.3-1.4c4.7-5.6,8.3-11.7,10.8-18.5c2.5-6.8,3.8-13.8,3.8-21.1c0-7.3-1.3-14.3-3.8-21.1  c-2.5-6.8-6.1-12.9-10.8-18.5c2.4-0.9,4.9-1.4,7.3-1.7c2.4-0.3,4.9-0.4,7.3-0.4c11.5,0,21.3,4.1,29.4,12.2  C319.2,187.1,323.2,196.9,323.2,208.3z M156.6,312.5h125v-8.3c0-1.9-0.5-3.6-1.4-5.2s-2.2-2.8-3.8-3.6c-9.4-4.7-18.8-8.2-28.4-10.5  s-19.2-3.5-28.9-3.5c-9.7,0-19.4,1.2-28.9,3.5s-19,5.9-28.4,10.5c-1.6,0.9-2.8,2.1-3.8,3.6s-1.4,3.3-1.4,5.2V312.5z M219.1,229.2  c5.7,0,10.6-2,14.7-6.1s6.1-9,6.1-14.7c0-5.7-2-10.6-6.1-14.7s-9-6.1-14.7-6.1c-5.7,0-10.6,2-14.7,6.1c-4.1,4.1-6.1,9-6.1,14.7  c0,5.7,2,10.6,6.1,14.7C208.4,227.1,213.4,229.2,219.1,229.2z"></path>
</svg>
